<svg width="10" height="9" viewBox="0 0 10 9" fill="none" xmlns="http://www.w3.org/2000/svg">
<path d="M8.076 0H6.276V1.14H7.608C7.752 1.14 7.84 1.168 7.872 1.224C7.912 1.272 7.932 1.36 7.932 1.488V8.676H9.192C9.464 8.676 9.64 8.632 9.72 8.544C9.808 8.456 9.852 8.272 9.852 7.992V1.344C9.852 0.848 9.7 0.5 9.396 0.3C9.1 0.1 8.66 0 8.076 0Z" fill="black"/>
<path d="M0.66 8.676H1.92V0H0.431999C0.303999 0 0.2 0.0440002 0.12 0.132C0.0399999 0.22 0 0.336 0 0.48V7.992C0 8.272 0.0399999 8.456 0.12 8.544C0.208 8.632 0.388 8.676 0.66 8.676Z" fill="black"/>
<path d="M5.484 0H2.412V1.14H3.672C3.816 1.14 3.904 1.168 3.936 1.224C3.976 1.272 3.996 1.36 3.996 1.488V6.96C3.996 7.256 4.048 7.472 4.152 7.608C4.256 7.736 4.428 7.8 4.668 7.8H5.916V0.48C5.916 0.336 5.876 0.22 5.796 0.132C5.716 0.0440002 5.612 0 5.484 0Z" fill="black"/>
</svg>
