<svg width="6" height="9" viewBox="0 0 6 9" fill="none" xmlns="http://www.w3.org/2000/svg">
<path d="M1.92 8.676H0.66C0.388 8.676 0.208001 8.632 0.120001 8.544C0.0400008 8.456 0 8.272 0 7.992V0.684C0 0.404 0.0400008 0.22 0.120001 0.132C0.208001 0.0440002 0.388 0 0.66 0H1.92V8.676ZM5.628 6.996V8.016C5.628 8.288 5.584 8.468 5.496 8.556C5.408 8.636 5.224 8.676 4.944 8.676H2.4V6.996H5.628ZM4.908 3.456V4.176C4.908 4.464 4.88 4.648 4.824 4.728C4.768 4.8 4.608 4.836 4.344 4.836H2.4V3.456H4.908ZM5.508 0V1.02C5.508 1.292 5.464 1.472 5.376 1.56C5.288 1.64 5.104 1.68 4.824 1.68H2.4V0H5.508Z" fill="black"/>
</svg>
