<svg width="16" height="15" viewBox="0 0 16 15" fill="none" xmlns="http://www.w3.org/2000/svg">
<path d="M11.2497 8.75C11.4392 8.75 11.6208 8.67474 11.7548 8.54079C11.8888 8.40683 11.964 8.22515 11.964 8.03571C11.964 7.84627 11.8888 7.66459 11.7548 7.53064C11.6208 7.39668 11.4392 7.32143 11.2497 7.32143C11.0603 7.32143 10.8786 7.39668 10.7446 7.53064C10.6107 7.66459 10.5354 7.84627 10.5354 8.03571C10.5354 8.22515 10.6107 8.40683 10.7446 8.54079C10.8786 8.67474 11.0603 8.75 11.2497 8.75ZM11.2497 11.6071C11.4392 11.6071 11.6208 11.5319 11.7548 11.3979C11.8888 11.264 11.964 11.0823 11.964 10.8929C11.964 10.7034 11.8888 10.5217 11.7548 10.3878C11.6208 10.2538 11.4392 10.1786 11.2497 10.1786C11.0603 10.1786 10.8786 10.2538 10.7446 10.3878C10.6107 10.5217 10.5354 10.7034 10.5354 10.8929C10.5354 11.0823 10.6107 11.264 10.7446 11.3979C10.8786 11.5319 11.0603 11.6071 11.2497 11.6071ZM8.39258 8.03571C8.39258 8.22515 8.31732 8.40683 8.18337 8.54079C8.04941 8.67474 7.86773 8.75 7.67829 8.75C7.48885 8.75 7.30717 8.67474 7.17322 8.54079C7.03926 8.40683 6.96401 8.22515 6.96401 8.03571C6.96401 7.84627 7.03926 7.66459 7.17322 7.53064C7.30717 7.39668 7.48885 7.32143 7.67829 7.32143C7.86773 7.32143 8.04941 7.39668 8.18337 7.53064C8.31732 7.66459 8.39258 7.84627 8.39258 8.03571ZM8.39258 10.8929C8.39258 11.0823 8.31732 11.264 8.18337 11.3979C8.04941 11.5319 7.86773 11.6071 7.67829 11.6071C7.48885 11.6071 7.30717 11.5319 7.17322 11.3979C7.03926 11.264 6.96401 11.0823 6.96401 10.8929C6.96401 10.7034 7.03926 10.5217 7.17322 10.3878C7.30717 10.2538 7.48885 10.1786 7.67829 10.1786C7.86773 10.1786 8.04941 10.2538 8.18337 10.3878C8.31732 10.5217 8.39258 10.7034 8.39258 10.8929ZM4.10686 8.75C4.2963 8.75 4.47799 8.67474 4.61194 8.54079C4.74589 8.40683 4.82115 8.22515 4.82115 8.03571C4.82115 7.84627 4.74589 7.66459 4.61194 7.53064C4.47799 7.39668 4.2963 7.32143 4.10686 7.32143C3.91742 7.32143 3.73574 7.39668 3.60179 7.53064C3.46783 7.66459 3.39258 7.84627 3.39258 8.03571C3.39258 8.22515 3.46783 8.40683 3.60179 8.54079C3.73574 8.67474 3.91742 8.75 4.10686 8.75ZM4.10686 11.6071C4.2963 11.6071 4.47799 11.5319 4.61194 11.3979C4.74589 11.264 4.82115 11.0823 4.82115 10.8929C4.82115 10.7034 4.74589 10.5217 4.61194 10.3878C4.47799 10.2538 4.2963 10.1786 4.10686 10.1786C3.91742 10.1786 3.73574 10.2538 3.60179 10.3878C3.46783 10.5217 3.39258 10.7034 3.39258 10.8929C3.39258 11.0823 3.46783 11.264 3.60179 11.3979C3.73574 11.5319 3.91742 11.6071 4.10686 11.6071Z" fill="#333333" fill-opacity="0.9"/>
<path fill-rule="evenodd" clip-rule="evenodd" d="M4.10714 0C4.24922 0 4.38548 0.0564412 4.48595 0.156907C4.58642 0.257373 4.64286 0.393634 4.64286 0.535714V1.08071C5.11571 1.07143 5.63643 1.07143 6.20929 1.07143H9.14714C9.72071 1.07143 10.2414 1.07143 10.7143 1.08071V0.535714C10.7143 0.393634 10.7707 0.257373 10.8712 0.156907C10.9717 0.0564412 11.1079 0 11.25 0C11.3921 0 11.5283 0.0564412 11.6288 0.156907C11.7293 0.257373 11.7857 0.393634 11.7857 0.535714V1.12643C11.9714 1.14071 12.1471 1.15857 12.3136 1.18071C13.1507 1.29357 13.8286 1.53071 14.3636 2.065C14.8979 2.6 15.135 3.27786 15.2479 4.115C15.3571 4.92929 15.3571 5.96857 15.3571 7.28143V8.79C15.3571 10.1029 15.3571 11.1429 15.2479 11.9564C15.135 12.7936 14.8979 13.4714 14.3636 14.0064C13.8286 14.5407 13.1507 14.7779 12.3136 14.8907C11.4993 15 10.46 15 9.14714 15H6.21C4.89714 15 3.85714 15 3.04357 14.8907C2.20643 14.7779 1.52857 14.5407 0.993571 14.0064C0.459286 13.4714 0.222143 12.7936 0.109286 11.9564C0 11.1421 0 10.1029 0 8.79V7.28143C0 5.96857 0 4.92857 0.109286 4.115C0.222143 3.27786 0.459286 2.6 0.993571 2.065C1.52857 1.53071 2.20643 1.29357 3.04357 1.18071C3.21 1.15857 3.38643 1.14071 3.57143 1.12643V0.535714C3.57143 0.393634 3.62787 0.257373 3.72834 0.156907C3.8288 0.0564412 3.96506 0 4.10714 0ZM3.18571 2.24286C2.46786 2.33929 2.05357 2.52071 1.75143 2.82286C1.44929 3.125 1.26786 3.53929 1.17143 4.25786C1.155 4.37929 1.14143 4.50786 1.13 4.64286H14.2271C14.2157 4.50714 14.2021 4.37929 14.1857 4.25714C14.0893 3.53929 13.9079 3.125 13.6057 2.82286C13.3036 2.52071 12.8893 2.33929 12.1707 2.24286C11.4371 2.14429 10.4693 2.14286 9.10714 2.14286H6.25C4.88786 2.14286 3.92071 2.14429 3.18571 2.24286ZM1.07143 7.32143C1.07143 6.71143 1.07143 6.18071 1.08071 5.71429H14.2764C14.2857 6.18071 14.2857 6.71143 14.2857 7.32143V8.75C14.2857 10.1121 14.2843 11.08 14.1857 11.8143C14.0893 12.5321 13.9079 12.9464 13.6057 13.2486C13.3036 13.5507 12.8893 13.7321 12.1707 13.8286C11.4371 13.9271 10.4693 13.9286 9.10714 13.9286H6.25C4.88786 13.9286 3.92071 13.9271 3.18571 13.8286C2.46786 13.7321 2.05357 13.5507 1.75143 13.2486C1.44929 12.9464 1.26786 12.5321 1.17143 11.8136C1.07286 11.08 1.07143 10.1121 1.07143 8.75V7.32143Z" fill="#333333" fill-opacity="0.9"/>
</svg>
