<svg width="15" height="11" viewBox="0 0 15 11" fill="none" xmlns="http://www.w3.org/2000/svg">
<path d="M14.6454 4.24991L10.5032 2.76132L8.77179 0.587619C8.62124 0.403569 8.43159 0.255344 8.21661 0.153705C8.00164 0.0520657 7.76673 -0.00043873 7.52893 2.76131e-06H3.24536C2.98338 -8.51863e-05 2.72535 0.0639089 2.49378 0.186405C2.26221 0.308901 2.06412 0.48618 1.91679 0.702785L0.463929 2.83631C0.161333 3.28033 -0.000345892 3.80526 5.55616e-07 4.34258V8.57052C5.55616e-07 8.71258 0.0564417 8.84883 0.156908 8.94928C0.257374 9.04974 0.393635 9.10617 0.535715 9.10617H1.68321C1.79975 9.5659 2.06627 9.97364 2.44059 10.2649C2.81492 10.5561 3.27569 10.7143 3.75 10.7143C4.22431 10.7143 4.68508 10.5561 5.05941 10.2649C5.43373 9.97364 5.70025 9.5659 5.81679 9.10617H9.18322C9.29975 9.5659 9.56627 9.97364 9.9406 10.2649C10.3149 10.5561 10.7757 10.7143 11.25 10.7143C11.7243 10.7143 12.1851 10.5561 12.5594 10.2649C12.9337 9.97364 13.2002 9.5659 13.3168 9.10617H14.4643C14.6064 9.10617 14.7426 9.04974 14.8431 8.94928C14.9436 8.84883 15 8.71258 15 8.57052V4.75396C15 4.64366 14.9659 4.53605 14.9024 4.44583C14.839 4.35561 14.7492 4.28719 14.6454 4.24991ZM3.75 9.64183C3.53809 9.64183 3.33094 9.579 3.15475 9.46128C2.97855 9.34357 2.84122 9.17625 2.76013 8.98049C2.67904 8.78474 2.65782 8.56933 2.69916 8.36151C2.7405 8.1537 2.84254 7.96281 2.99239 7.81298C3.14223 7.66316 3.33314 7.56112 3.54098 7.51979C3.74881 7.47845 3.96424 7.49967 4.16002 7.58075C4.3558 7.66184 4.52313 7.79915 4.64086 7.97533C4.75859 8.1515 4.82143 8.35863 4.82143 8.57052C4.821 8.85452 4.70798 9.12676 4.50715 9.32758C4.30631 9.5284 4.03403 9.64141 3.75 9.64183ZM11.25 9.64183C11.0381 9.64183 10.8309 9.579 10.6547 9.46128C10.4786 9.34357 10.3412 9.17625 10.2601 8.98049C10.179 8.78474 10.1578 8.56933 10.1992 8.36151C10.2405 8.1537 10.3425 7.96281 10.4924 7.81298C10.6422 7.66316 10.8331 7.56112 11.041 7.51979C11.2488 7.47845 11.4642 7.49967 11.66 7.58075C11.8558 7.66184 12.0231 7.79915 12.1409 7.97533C12.2586 8.1515 12.3214 8.35863 12.3214 8.57052C12.3211 8.85456 12.2082 9.12689 12.0073 9.32774C11.8064 9.52859 11.5341 9.64155 11.25 9.64183ZM13.9286 8.03486H13.3168C13.2002 7.57514 12.9337 7.1674 12.5594 6.87614C12.1851 6.58489 11.7243 6.42675 11.25 6.42675C10.7757 6.42675 10.3149 6.58489 9.9406 6.87614C9.56627 7.1674 9.29975 7.57514 9.18322 8.03486H5.81679C5.70025 7.57514 5.43373 7.1674 5.05941 6.87614C4.68508 6.58489 4.22431 6.42675 3.75 6.42675C3.27569 6.42675 2.81492 6.58489 2.44059 6.87614C2.06627 7.1674 1.79975 7.57514 1.68321 8.03486H1.07143V4.34258C1.07137 4.02005 1.16844 3.70497 1.35 3.43839L2.80232 1.30593C2.85143 1.23366 2.91748 1.1745 2.9947 1.13361C3.07192 1.09271 3.15797 1.07133 3.24536 1.07132H7.52893C7.60688 1.07101 7.68394 1.08784 7.75467 1.1206C7.82539 1.15337 7.88805 1.20128 7.93821 1.26094L9.75964 3.54766C9.82159 3.62541 9.90394 3.68439 9.9975 3.718L13.9286 5.13053V8.03486Z" fill="#212121" fill-opacity="0.9"/>
</svg>
