<svg width="14" height="15" viewBox="0 0 14 15" fill="none" xmlns="http://www.w3.org/2000/svg">
<path d="M6.93628 0C5.56441 0 4.22335 0.439867 3.08269 1.26398C1.94202 2.08809 1.05299 3.25943 0.527995 4.62987C0.00300538 6.00032 -0.134356 7.50832 0.133282 8.96318C0.400919 10.418 1.06154 11.7544 2.03159 12.8033C3.00165 13.8522 4.23757 14.5665 5.58308 14.8559C6.92858 15.1453 8.32323 14.9967 9.59067 14.4291C10.8581 13.8614 11.9414 12.9001 12.7036 11.6668C13.4657 10.4334 13.8725 8.98336 13.8725 7.5C13.8706 5.51152 13.1392 3.60509 11.8388 2.19902C10.5384 0.79295 8.77529 0.00209987 6.93628 0ZM6.93628 13.8462C5.77547 13.8462 4.64073 13.474 3.67555 12.7766C2.71037 12.0793 1.95811 11.0882 1.51388 9.92857C1.06966 8.76896 0.953433 7.49296 1.1799 6.26193C1.40636 5.03089 1.96534 3.90012 2.78616 3.01259C3.60697 2.12507 4.65276 1.52065 5.79126 1.27579C6.92977 1.03092 8.10986 1.15659 9.1823 1.63692C10.2548 2.11724 11.1714 2.93065 11.8163 3.97426C12.4612 5.01788 12.8054 6.24485 12.8054 7.5C12.8037 9.18252 12.1847 10.7956 11.0844 11.9853C9.98415 13.175 8.49233 13.8442 6.93628 13.8462ZM11.2048 7.5C11.2048 7.65301 11.1485 7.79975 11.0485 7.90795C10.9484 8.01614 10.8127 8.07692 10.6712 8.07692H6.93628C6.79477 8.07692 6.65905 8.01614 6.55899 7.90795C6.45893 7.79975 6.40272 7.65301 6.40272 7.5V3.46154C6.40272 3.30853 6.45893 3.16179 6.55899 3.05359C6.65905 2.9454 6.79477 2.88461 6.93628 2.88461C7.07778 2.88461 7.2135 2.9454 7.31356 3.05359C7.41362 3.16179 7.46984 3.30853 7.46984 3.46154V6.92308H10.6712C10.8127 6.92308 10.9484 6.98386 11.0485 7.09205C11.1485 7.20025 11.2048 7.34699 11.2048 7.5Z" fill="#333333" fill-opacity="0.9"/>
</svg>
